<svg id="Layer_1" data-name="Layer 1" xmlns="http://www.w3.org/2000/svg" width="16" height="16" viewBox="0 0 16 16">
  <defs>
    <style>
      .cls-1 {
        fill: #f99e1d;
      }

      .cls-2 {
        fill: #3f4040;
      }

      .cls-3 {
        fill: #f89d1d;
      }
    </style>
  </defs>
  <g>
    <circle class="cls-1" cx="8" cy="8" r="8"/>
    <g>
      <g>
        <path class="cls-2" d="M5,12l-.63,0-.65,0c-.22,0-.43-.05-.63-.09l-.43-.08v-1l.59,0c.27,0,.55,0,.84,0h.83a3.17,3.17,0,0,0,.73-.07,1,1,0,0,0,.51-.28.81.81,0,0,0,.2-.57V9.65A.79.79,0,0,0,6.12,9a1,1,0,0,0-.68-.22H4.77a2.52,2.52,0,0,1-1.64-.47,2,2,0,0,1-.56-1.59V6.37a1.92,1.92,0,0,1,.62-1.58A2.84,2.84,0,0,1,5,4.29a8.06,8.06,0,0,1,.85,0l.82.1c.22,0,.41.06.58.1v1l-1-.06-1.11,0a2.7,2.7,0,0,0-.67.07.83.83,0,0,0-.5.31,1,1,0,0,0-.18.62v.21a.84.84,0,0,0,.28.69,1.24,1.24,0,0,0,.77.21h.78a2.28,2.28,0,0,1,1.11.24,1.53,1.53,0,0,1,.64.67,2.17,2.17,0,0,1,.21,1V9.9a2.27,2.27,0,0,1-.32,1.34,1.6,1.6,0,0,1-.89.62A5.18,5.18,0,0,1,5,12Z" transform="translate(0)"/>
        <path class="cls-3" d="M5,4.41c.28,0,.56,0,.84,0l.82.1.47.08V5.4l-.83,0c-.4,0-.78,0-1.12,0a2.93,2.93,0,0,0-.7.08,1,1,0,0,0-.57.35,1.08,1.08,0,0,0-.2.7v.21A.94.94,0,0,0,4,7.45a1.31,1.31,0,0,0,.84.23h.78a2.18,2.18,0,0,1,1,.23,1.44,1.44,0,0,1,.59.61,2.12,2.12,0,0,1,.2.93V9.9a2.2,2.2,0,0,1-.3,1.27,1.52,1.52,0,0,1-.82.57A5,5,0,0,1,5,11.9H4.39c-.21,0-.43,0-.64-.06l-.63-.08-.33-.06v-.77l.46,0,.85,0h.83a3.34,3.34,0,0,0,.76-.08,1.1,1.1,0,0,0,.58-.32.92.92,0,0,0,.22-.65V9.65a.93.93,0,0,0-.29-.72,1.12,1.12,0,0,0-.76-.25H4.77a2.42,2.42,0,0,1-1.56-.44A1.83,1.83,0,0,1,2.7,6.75V6.37a1.77,1.77,0,0,1,.56-1.48A2.68,2.68,0,0,1,5,4.41m0-.25a2.94,2.94,0,0,0-1.88.53,2,2,0,0,0-.66,1.68v.38a2.08,2.08,0,0,0,.6,1.69,2.63,2.63,0,0,0,1.72.49h.67A.81.81,0,0,1,6,9.12a.66.66,0,0,1,.21.53v.29a.65.65,0,0,1-.16.48.86.86,0,0,1-.45.25,2.91,2.91,0,0,1-.7.07H4.11l-.84,0-.73-.06v1.25l.55.11.63.08.66.06H5A5.55,5.55,0,0,0,6.44,12a1.72,1.72,0,0,0,.95-.67A2.42,2.42,0,0,0,7.74,9.9V9.45a2.34,2.34,0,0,0-.23-1,1.71,1.71,0,0,0-.69-.72,2.41,2.41,0,0,0-1.17-.26H4.87a1.13,1.13,0,0,1-.69-.18A.69.69,0,0,1,4,6.66V6.45a1,1,0,0,1,.14-.55.85.85,0,0,1,.43-.26,3.16,3.16,0,0,1,.65-.07c.34,0,.71,0,1.11,0l1.09.06V4.43a6.63,6.63,0,0,0-.69-.13l-.83-.1c-.28,0-.57,0-.86,0Z" transform="translate(0)"/>
      </g>
      <g>
        <path class="cls-2" d="M9,12V6a2,2,0,0,1,.15-.82,1.32,1.32,0,0,1,.39-.5,1.38,1.38,0,0,1,.54-.27,2.46,2.46,0,0,1,.59-.08h1l1.21,0c.38,0,.76.05,1.12.09V5.56H11.13a.79.79,0,0,0-.59.21.77.77,0,0,0-.2.55V7.78l3.12.08v1L10.34,9v3Z" transform="translate(0)"/>
        <path class="cls-3" d="M10.69,4.47h1c.38,0,.78,0,1.2,0s.68,0,1,.07v.84H11.13a.93.93,0,0,0-.68.25.93.93,0,0,0-.23.64V7.9h.24L13.33,8v.76l-2.87.08h-.24v3H9.15V6a1.9,1.9,0,0,1,.13-.77,1.16,1.16,0,0,1,.35-.45,1.38,1.38,0,0,1,.5-.25,2.23,2.23,0,0,1,.56-.08m0-.25a2.27,2.27,0,0,0-.62.09,1.63,1.63,0,0,0-.59.29,1.31,1.31,0,0,0-.42.55A2,2,0,0,0,8.9,6v6.07h1.57v-3L13.58,9V7.74l-3.11-.08V6.32a.63.63,0,0,1,.16-.46.65.65,0,0,1,.5-.18h3V4.36c-.39,0-.81-.07-1.24-.09s-.83,0-1.21,0Z" transform="translate(0)"/>
      </g>
    </g>
  </g>
</svg>
