<?xml version="1.0" encoding="UTF-8"?>
<svg id="Layer_1" data-name="Layer 1" xmlns="http://www.w3.org/2000/svg" viewBox="0 0 1195.65 1114.43">
  <defs>
    <style>
      .cls-1 {
        fill: #84b74f;
        stroke-width: 0px;
      }
    </style>
  </defs>
  <path class="cls-1" d="M950.61,188.07h-92.12c-23.37-76.27-94.37-131.72-178.3-131.72h-139.79c-83.92,0-154.92,55.45-178.28,131.72h-92.61c-112.1,0-202.98,90.88-202.98,202.97v464.09c0,112.09,105.85,202.96,217.96,202.96h24.35V412.2c0-76.78,30.87-115.18,92.61-115.18h284.87c92.2,0,163.32,28.93,213.34,86.74,46.03,53.24,70.88,125.62,74.54,217.14-29.74-37.68-70.94-68.16-121.85-89.76-52.56-22.31-113.83-34.92-179.53-37.14-5.49-.38-11.15-.57-16.99-.57h-165.29v306.18h165.29c31.23,0,57.39-5.45,78.47-16.32-11.71,21-26.1,42.23-42.73,62.62-56.58,69.37-128.41,117.06-192.16,127.54l.19,1.12h-9.05v103.51h475.04c112.08,0,187.98-90.87,187.98-202.96v-464.09c0-112.09-90.88-202.97-202.96-202.97ZM814.86,930.12c-36.96,16.29-79.8,24.45-128.55,24.45h-101.05c45.74-24.3,90.54-61.94,129.51-109.72,53.88-66.06,85.18-138.96,84.16-194.37.72-8.09,1.08-16.57,1.08-25.42,0-16.99-1.36-32.53-4.08-46.67,25.55,35.86,43.13,87.53,49.33,148.05,7.87,76.57-3.74,149.77-30.4,203.66ZM899.65,867.1c-12.91,15.06-27.23,28.17-42.95,39.31,18.16-53.32,25.1-117.22,18.35-183.01-9.64-93.75-45.6-169.28-97.07-205.12,82.94,20.16,157.92,62.74,195.93,137.22-4.52,88.62-29.3,159.14-74.26,211.6Z"/>
</svg>